<?xml version="1.0" standalone="no"?>
<!DOCTYPE svg PUBLIC "-//W3C//DTD SVG 20010904//EN"
 "http://www.w3.org/TR/2001/REC-SVG-20010904/DTD/svg10.dtd">
<svg version="1.0" xmlns="http://www.w3.org/2000/svg"
 width="373.000000pt" height="373.000000pt" viewBox="0 0 373.000000 373.000000"
 preserveAspectRatio="xMidYMid meet">
<metadata>
Created by potrace 1.11, written by Peter Selinger 2001-2013
</metadata>
<g transform="translate(0.000000,373.000000) scale(0.100000,-0.100000)"
fill="#000000" stroke="none">
<path d="M546 3125 c4 -11 17 -44 30 -73 13 -29 24 -55 24 -57 0 -3 20 -54 45
-113 60 -140 60 -142 76 -177 7 -16 13 -32 14 -35 5 -17 147 -355 161 -384 8
-16 14 -35 14 -41 0 -7 7 -18 15 -25 8 -7 13 -16 10 -20 -4 -7 14 -51 65 -165
5 -11 25 -60 45 -110 20 -49 43 -103 50 -120 8 -16 30 -70 50 -120 20 -49 43
-103 50 -120 18 -42 107 -258 135 -327 13 -32 27 -58 31 -58 4 0 24 24 45 52
22 29 42 58 47 63 4 6 46 62 93 125 47 63 95 126 106 140 11 14 32 43 46 65
15 21 37 49 48 62 12 13 34 42 50 65 16 24 35 49 42 56 6 7 12 16 12 18 0 3
-107 292 -239 642 -131 350 -241 646 -245 657 -6 20 -14 20 -416 20 -407 1
-410 1 -404 -20z"/>
<path d="M2020 3065 c-2 -895 1 -1889 5 -1893 7 -7 645 -9 646 -2 1 3 2 448 3
990 l1 985 -327 1 -328 0 0 -81z"/>
<path d="M628 1825 c-2 -2 -25 -5 -53 -7 -211 -19 -347 -264 -253 -458 25 -54
76 -120 91 -120 4 0 17 -9 28 -19 44 -41 186 -61 269 -38 126 35 229 167 231
298 3 136 -69 256 -186 309 -45 21 -120 41 -127 35z"/>
<path d="M3148 1824 c-2 -1 -20 -5 -42 -8 -21 -4 -54 -14 -73 -22 -43 -21
-133 -102 -133 -120 0 -8 -4 -14 -9 -14 -4 0 -16 -26 -26 -57 -70 -222 89
-437 321 -434 94 1 228 82 271 164 65 127 47 286 -45 387 -18 19 -32 31 -32
28 0 -4 -12 4 -26 17 -29 27 -99 52 -161 58 -24 2 -44 3 -45 1z"/>
<path d="M110 751 c0 -65 3 -81 15 -81 11 0 15 11 15 40 0 48 9 51 33 10 17
-28 37 -40 37 -22 0 4 11 21 25 37 l24 30 -4 -47 c-4 -41 -3 -47 14 -45 16 1
18 10 17 77 -2 83 -17 100 -46 45 -8 -16 -22 -37 -31 -47 -15 -17 -17 -16 -35
17 -10 19 -22 35 -26 35 -5 0 -7 5 -5 12 1 6 -6 14 -15 16 -16 3 -18 -6 -18
-77z"/>
<path d="M546 799 c-31 -36 -27 -72 11 -106 41 -38 117 -23 130 26 11 40 10
44 -6 73 -27 49 -97 52 -135 7z m110 -50 c1 -39 -9 -49 -48 -49 -51 0 -65 74
-18 97 36 18 65 -4 66 -48z"/>
<path d="M931 749 c1 -69 3 -80 17 -77 11 2 17 13 17 33 1 27 4 30 38 33 38 3
42 -2 38 -50 -2 -11 5 -18 16 -18 16 0 18 9 18 79 0 69 -2 79 -17 78 -13 -1
-18 -10 -18 -29 0 -15 -3 -28 -7 -29 -64 -8 -66 -7 -66 44 0 10 -7 17 -18 17
-17 0 -19 -8 -18 -81z"/>
<path d="M1345 813 c-23 -22 -37 -62 -30 -84 9 -28 54 -59 86 -59 36 0 77 37
83 74 11 62 -94 115 -139 69z m105 -54 c0 -36 -19 -59 -48 -59 -16 0 -33 5
-40 12 -20 20 -14 65 9 82 19 13 25 13 50 0 18 -9 29 -23 29 -35z"/>
<path d="M1700 814 c0 -7 12 -14 27 -16 27 -3 28 -4 26 -65 -1 -54 1 -63 16
-63 15 0 17 9 17 65 l-1 65 28 0 c19 0 27 4 24 13 -5 17 -137 18 -137 1z"/>
<path d="M2070 750 l0 -80 60 1 c43 1 60 5 60 15 0 10 -14 14 -46 14 -38 0
-45 3 -42 18 2 11 15 19 36 22 42 6 42 25 0 25 -23 0 -34 5 -36 18 -3 14 4 17
42 17 32 0 46 4 46 14 0 9 -17 14 -60 15 l-60 2 0 -81z"/>
<path d="M2426 815 c4 -8 11 -15 17 -15 6 0 7 -3 4 -7 -4 -3 0 -14 9 -24 10
-11 12 -19 4 -24 -5 -3 -8 -11 -5 -16 4 -5 2 -9 -3 -9 -5 0 -17 -11 -26 -25
-16 -24 -16 -25 4 -25 12 0 28 12 37 28 16 28 17 28 35 10 10 -10 18 -22 18
-28 0 -5 9 -10 21 -10 21 0 21 4 -13 52 -20 29 -15 50 20 91 14 16 13 17 -11
17 -17 0 -27 -5 -27 -14 0 -26 -21 -29 -44 -7 -26 24 -48 28 -40 6z"/>
<path d="M2790 749 l0 -81 55 5 c60 5 85 19 85 47 0 25 -20 38 -68 46 -66 10
-54 43 15 38 19 -1 34 4 37 12 4 11 -8 14 -59 14 l-65 0 0 -81z m100 -30 c0
-17 -5 -20 -32 -17 -22 2 -34 9 -36 21 -3 14 4 17 32 17 30 0 36 -4 36 -21z"/>
<path d="M3167 783 c15 -27 30 -50 34 -53 11 -7 -2 -25 -23 -33 -25 -9 -23
-27 2 -27 22 0 73 47 65 60 -3 5 -2 10 2 12 5 1 18 22 30 46 20 38 21 43 6 40
-9 -2 -26 -20 -37 -41 -11 -20 -22 -37 -25 -37 -4 0 -14 18 -24 40 -12 28 -23
40 -37 40 -20 0 -20 -2 7 -47z"/>
<path d="M3542 803 c-1 -44 -12 -97 -22 -103 -4 -3 -10 -16 -11 -30 -3 -18 1
-26 15 -28 14 -3 17 0 13 12 -6 15 1 17 56 14 43 -2 61 -7 60 -15 -2 -7 5 -13
15 -13 14 0 19 7 17 27 0 15 -6 28 -13 31 -8 2 -12 26 -12 67 l0 62 -58 2
c-58 1 -59 0 -60 -26z m89 -28 c0 -16 1 -41 3 -55 1 -23 -1 -25 -35 -22 l-37
4 2 51 c1 52 1 52 34 52 29 0 32 -3 33 -30z"/>
</g>
</svg>
