<?xml version="1.0" encoding="utf-8"?>
<!-- Generator: Adobe Illustrator 18.1.0, SVG Export Plug-In . SVG Version: 6.00 Build 0)  -->
<!DOCTYPE svg PUBLIC "-//W3C//DTD SVG 1.1//EN" "http://www.w3.org/Graphics/SVG/1.1/DTD/svg11.dtd">
<svg version="1.1"
	 id="svg3009" xmlns:dc="http://purl.org/dc/elements/1.1/" xmlns:sodipodi="http://sodipodi.sourceforge.net/DTD/sodipodi-0.dtd" xmlns:rdf="http://www.w3.org/1999/02/22-rdf-syntax-ns#" xmlns:cc="http://creativecommons.org/ns#" xmlns:svg="http://www.w3.org/2000/svg" xmlns:inkscape="http://www.inkscape.org/namespaces/inkscape" sodipodi:docname="Xbox_One_logo.svg" inkscape:version="0.48.4 r9939"
	 xmlns="http://www.w3.org/2000/svg" xmlns:xlink="http://www.w3.org/1999/xlink" x="0px" y="0px" viewBox="-198.7 404.8 33.7 33.4"
	 enable-background="new -198.7 404.8 33.7 33.4" xml:space="preserve">
<sodipodi:namedview  inkscape:cy="13.184416" id="namedview3031" inkscape:zoom="1.4142136" borderopacity="1" inkscape:cx="26.487741" showgrid="false" gridtolerance="10" guidetolerance="10" objecttolerance="10" pagecolor="#ffffff" bordercolor="#666666" inkscape:current-layer="svg3009" inkscape:window-maximized="1" inkscape:window-y="-8" inkscape:window-x="-8" inkscape:window-height="838" inkscape:window-width="1600" inkscape:pageshadow="2" inkscape:pageopacity="0">
	</sodipodi:namedview>
<g id="g4201">
	<g id="g3055" transform="translate(-1.2833333,0.93333333)">
		<g id="g3923" transform="matrix(-1,0,0,1,61.715049,-34.927083)">
		</g>
		<g id="g4049">
			<g id="g4160" transform="translate(-2.125,35.625)">
				
					<path id="path3033" sodipodi:ry="14.758333" sodipodi:rx="14.35" sodipodi:cy="17.391666" sodipodi:cx="23.333334" sodipodi:type="arc" fill="#666666" d="
					M-161.6,384.9c0,9.2-7.6,16.7-16.9,16.7c-9.3,0-16.9-7.5-16.9-16.7c0-9.2,7.6-16.7,16.9-16.7
					C-169.1,368.2-161.6,375.7-161.6,384.9z"/>
				
					<radialGradient id="path3035_1_" cx="-154.0966" cy="933.0499" r="14.35" gradientTransform="matrix(0 1.6935 1.5038 0 -1581.8927 644.0657)" gradientUnits="userSpaceOnUse">
					<stop  offset="0" style="stop-color:#FFFFFF"/>
					<stop  offset="1" style="stop-color:#FFFFFF;stop-opacity:0"/>
				</radialGradient>
				
					<path id="path3035" sodipodi:ry="14.758333" sodipodi:rx="14.35" sodipodi:cy="17.391666" sodipodi:cx="23.333334" sodipodi:type="arc" fill="url(#path3035_1_)" d="
					M-161.6,384.9c0,9.2-7.6,16.7-16.9,16.7c-9.3,0-16.9-7.5-16.9-16.7c0-9.2,7.6-16.7,16.9-16.7
					C-169.1,368.2-161.6,375.7-161.6,384.9z"/>
				
					<radialGradient id="path3045_1_" cx="-154.0966" cy="933.0499" r="14.35" gradientTransform="matrix(0 1.6935 1.5038 0 -1581.8927 644.0657)" gradientUnits="userSpaceOnUse">
					<stop  offset="0" style="stop-color:#FFFFFF"/>
					<stop  offset="1" style="stop-color:#FFFFFF;stop-opacity:0"/>
				</radialGradient>
				
					<path id="path3045" sodipodi:ry="14.758333" sodipodi:rx="14.35" sodipodi:cy="17.391666" sodipodi:cx="23.333334" sodipodi:type="arc" fill="url(#path3045_1_)" d="
					M-161.6,384.9c0,9.2-7.6,16.7-16.9,16.7c-9.3,0-16.9-7.5-16.9-16.7c0-9.2,7.6-16.7,16.9-16.7
					C-169.1,368.2-161.6,375.7-161.6,384.9z"/>
				
					<radialGradient id="path3047_1_" cx="-154.0966" cy="933.0499" r="14.35" gradientTransform="matrix(0 1.6935 1.5038 0 -1581.8927 644.0657)" gradientUnits="userSpaceOnUse">
					<stop  offset="0" style="stop-color:#FFFFFF"/>
					<stop  offset="1" style="stop-color:#FFFFFF;stop-opacity:0"/>
				</radialGradient>
				
					<path id="path3047" sodipodi:ry="14.758333" sodipodi:rx="14.35" sodipodi:cy="17.391666" sodipodi:cx="23.333334" sodipodi:type="arc" fill="url(#path3047_1_)" d="
					M-161.6,384.9c0,9.2-7.6,16.7-16.9,16.7c-9.3,0-16.9-7.5-16.9-16.7c0-9.2,7.6-16.7,16.9-16.7
					C-169.1,368.2-161.6,375.7-161.6,384.9z"/>
				<g id="g4126" transform="translate(3.7995054e-7,0.05177686)">
					<g id="g4010" transform="matrix(1.0075011,0,0,1.0008426,-0.23709798,0.02715301)">
						<g id="g3951">
							<g id="g3917" transform="translate(1.334375,-34.927083)">
								<path id="path3900" sodipodi:nodetypes="ccccc" inkscape:connector-curvature="0" fill="#00A54D" d="M-182.5,412.1
									c-1.8,2.3-9.6,11.4-8.9,17.6c0.5,0.6,1,1.2,1.6,1.7c-0.1-4.7,5.5-9.8,9.8-13.7L-182.5,412.1z"/>
							</g>
							<g id="g3988" transform="translate(1.334375,-34.927083)">
								
									<linearGradient id="path3990_1_" gradientUnits="userSpaceOnUse" x1="-191.8824" y1="414.509" x2="-195.8378" y2="419.1494" gradientTransform="matrix(1.0075 0 0 -1.0008 9.0429 838.9161)">
									<stop  offset="0" style="stop-color:#97CA43"/>
									<stop  offset="1" style="stop-color:#97CA43;stop-opacity:0"/>
								</linearGradient>
								<path id="path3990" sodipodi:nodetypes="ccccc" inkscape:connector-curvature="0" fill="url(#path3990_1_)" d="
									M-182.5,412.1c-1.8,2.3-9.6,11.4-8.9,17.6c0.5,0.6,1,1.2,1.6,1.7c-0.1-4.7,5.5-9.8,9.8-13.7L-182.5,412.1z"/>
							</g>
							<g id="g3888" transform="translate(1.196189,-34.89572)">
								<g id="g3876">
									<path id="path3089" sodipodi:nodetypes="cccccccc" inkscape:connector-curvature="0" fill="#02A74D" d="M-186.9,405.2
										c-1,0.6-1.9,1.3-2.7,2c2.7,0.5,5.3,2.9,6.8,4.8c1.3,2,2,3.8,2.9,5.7c0.6-0.5,1.2-1,1.9-1.6l0-8.2
										C-180,406.8-183.3,405.1-186.9,405.2C-186.9,405.2-186.9,405.2-186.9,405.2z"/>
									
										<linearGradient id="path4000_1_" gradientUnits="userSpaceOnUse" x1="-191.7725" y1="425.6487" x2="-188.1486" y2="433.6921" gradientTransform="matrix(1.0075 0 0 -1.0008 8.9037 838.8847)">
										<stop  offset="0" style="stop-color:#97CA43"/>
										<stop  offset="1" style="stop-color:#97CA43;stop-opacity:0"/>
									</linearGradient>
									<path id="path4000" sodipodi:nodetypes="cccccccc" inkscape:connector-curvature="0" fill="url(#path4000_1_)" d="
										M-186.9,405.2c-1,0.6-1.9,1.3-2.7,2c2.7,0.5,5.3,2.9,6.8,4.8c1.3,2,2,3.8,2.9,5.7c0.6-0.5,1.2-1,1.9-1.6l0-8.2
										C-180,406.8-183.3,405.1-186.9,405.2C-186.9,405.2-186.9,405.2-186.9,405.2z"/>
								</g>
							</g>
						</g>
					</g>
					<g id="g4021" transform="matrix(-1.0041673,0,0,1.0016853,63.252358,0.05430602)">
						<g id="g4023">
							<g id="g4025" transform="translate(1.334375,-34.927083)">
								<path id="path4027" sodipodi:nodetypes="ccccc" inkscape:connector-curvature="0" fill="#00A54D" d="M235.1,411.8
									c-1.8,2.3-9.6,11.4-8.9,17.6c0.5,0.6,1,1.2,1.6,1.7c-0.1-4.7,5.5-9.8,9.8-13.7L235.1,411.8z"/>
							</g>
							<g id="g4029" transform="translate(1.334375,-34.927083)">
								
									<linearGradient id="path4031_1_" gradientUnits="userSpaceOnUse" x1="668.9045" y1="414.501" x2="664.9491" y2="419.1414" gradientTransform="matrix(-1.0042 0 0 -1.0017 904.9783 838.9189)">
									<stop  offset="0" style="stop-color:#97CA43"/>
									<stop  offset="1" style="stop-color:#97CA43;stop-opacity:0"/>
								</linearGradient>
								<path id="path4031" sodipodi:nodetypes="ccccc" inkscape:connector-curvature="0" fill="url(#path4031_1_)" d="M235.1,411.8
									c-1.8,2.3-9.6,11.4-8.9,17.6c0.5,0.6,1,1.2,1.6,1.7c-0.1-4.7,5.5-9.8,9.8-13.7L235.1,411.8z"/>
							</g>
							<g id="g4033" transform="translate(1.196189,-34.89572)">
								<g id="g4035">
									<path id="path4037" sodipodi:nodetypes="cccccccc" inkscape:connector-curvature="0" fill="#02A74D" d="M230.7,404.9
										c-1,0.6-1.9,1.3-2.7,2c2.7,0.5,5.3,2.9,6.8,4.8c1.3,2,2,3.8,2.9,5.7c0.6-0.5,1.2-1,1.9-1.6l0-8.2
										C237.6,406.4,234.3,404.8,230.7,404.9C230.7,404.9,230.7,404.9,230.7,404.9z"/>
									
										<linearGradient id="path4039_1_" gradientUnits="userSpaceOnUse" x1="669.0394" y1="425.9859" x2="672.1352" y2="431.0291" gradientTransform="matrix(-1.0042 0 0 -1.0017 905.1171 838.8876)">
										<stop  offset="0" style="stop-color:#97CA43"/>
										<stop  offset="1" style="stop-color:#97CA43;stop-opacity:0"/>
									</linearGradient>
									<path id="path4039" sodipodi:nodetypes="cccccccc" inkscape:connector-curvature="0" fill="url(#path4039_1_)" d="
										M230.7,404.9c-1,0.6-1.9,1.3-2.7,2c2.7,0.5,5.3,2.9,6.8,4.8c1.3,2,2,3.8,2.9,5.7c0.6-0.5,1.2-1,1.9-1.6l0-8.2
										C237.6,406.4,234.3,404.8,230.7,404.9C230.7,404.9,230.7,404.9,230.7,404.9z"/>
								</g>
							</g>
						</g>
					</g>
				</g>
			</g>
		</g>
	</g>
</g>
</svg>
