<svg width="200" height="45" viewBox="0 0 200 45" fill="none" xmlns="http://www.w3.org/2000/svg">
<path d="M182.131 25.3756H191.285V7.16529H199.998V0.0332031H173.234V7.16529H182.131V25.3756Z" fill="white"/>
<path d="M8.88527 25.4446H18.0265V7.1875H26.729V0.0371094H0V7.1875H8.88527V25.4446Z" fill="white"/>
<path d="M30.0391 25.4427H39.1803V15.0256L47.444 25.4427H58.194L50.6251 16.6589C55.0495 16.296 57.9381 13.1382 57.9381 8.60111C57.9381 3.44702 54.1353 0.0351562 48.0656 0.0351562H30.0391V25.4427ZM39.1803 12.3396V6.42333H44.5919C47.1514 6.42333 48.4678 7.40333 48.4678 9.29074C48.4678 11.287 47.0417 12.3396 44.3359 12.3396H39.1803Z" fill="white"/>
<path d="M61.5039 25.4438H70.6451V0H61.5039V25.4438Z" fill="white"/>
<path d="M73.957 25.4427H87.1935C98.7846 25.4427 104.05 19.5626 104.05 12.5937C104.05 5.37073 98.8212 0.0351562 88.2173 0.0351562H73.957V25.4427ZM83.0983 18.9819V6.49592H87.5592C92.2029 6.49592 94.2506 9.03667 94.2506 12.5574C94.2506 16.4774 91.7641 18.9819 87.0473 18.9819H83.0983Z" fill="white"/>
<path d="M107.359 25.4427H131.2V18.9819H116.501V15.57H130.359V9.61741H116.501V6.49592H131.09V0.0351562H107.359V25.4427Z" fill="white"/>
<path d="M161.818 25.419H152.639L142.535 0H151.714L161.818 25.419Z" fill="white"/>
<path d="M134.516 25.419H143.617V0H134.516V25.419Z" fill="white"/>
<path d="M160.742 25.419H169.921V0H160.742V25.419Z" fill="white"/>
<path d="M20.1954 33.5586V43.7862H18.8384V38.5886C18.8384 37.7263 18.8384 36.4209 18.8635 34.6843H18.8384C18.5871 35.3909 18.0971 36.6963 17.3809 38.5886L15.3956 43.7862H13.7998L11.8146 38.5886C11.0858 36.6963 10.6083 35.4029 10.357 34.6843H10.3319C10.357 36.4329 10.357 37.7263 10.357 38.5886V43.7862H9V33.5586H11.2366L13.1841 38.6005C13.6616 39.8939 14.1391 41.1993 14.604 42.5287H14.6291C15.094 41.2113 15.5589 39.8939 16.049 38.6005L17.9463 33.5586H20.1954Z" fill="white"/>
<path d="M30.4225 33.5586V34.7323H24.8939V37.9658H30.1084V39.1275H24.8939V42.6005H30.5984V43.7742H23.5117V33.5586H30.435H30.4225Z" fill="white"/>
<path d="M33.1875 43.7862V33.5586H36.4544C38.2386 33.5586 39.6082 34.0017 40.5757 34.8879C41.5432 35.7742 42.0207 37.0317 42.0207 38.6724C42.0207 40.3131 41.5432 41.5706 40.5757 42.4568C39.6082 43.3431 38.2386 43.7862 36.4544 43.7862H33.1875ZM36.4418 34.7323H34.5697V42.6125H36.4418C37.7737 42.6125 38.8041 42.2772 39.5077 41.6065C40.2113 40.9359 40.5632 39.9538 40.5632 38.6724C40.5632 37.3909 40.2113 36.4089 39.5077 35.7382C38.8041 35.0676 37.7863 34.7323 36.4418 34.7323Z" fill="white"/>
<path d="M46.0462 33.5586V43.7862H44.6641V33.5586H46.0462Z" fill="white"/>
<path d="M56.7443 43.7862L55.5883 40.7442H50.8513L49.6702 43.7862H48.1875L52.2711 33.5586H54.1559L58.2395 43.7862H56.7443ZM51.2911 39.5706H55.136L54.7841 38.6365C54.1684 37.0197 53.6533 35.6305 53.2261 34.4688H53.2009C52.7737 35.6305 52.2586 37.0197 51.6429 38.6365L51.2785 39.5706H51.2911Z" fill="white"/>
<path d="M64.7266 43.9913V33.7637H68.2196C69.4133 33.7637 70.318 33.9912 70.9211 34.4583C71.5242 34.9254 71.8384 35.5601 71.8384 36.3625C71.8384 37.5361 71.2478 38.3385 70.0541 38.7457V38.7697C70.6949 38.9134 71.1975 39.1888 71.5494 39.608C71.9012 40.0272 72.0771 40.5421 72.0771 41.1649C72.0771 42.0272 71.763 42.7098 71.1222 43.2248C70.4813 43.7398 69.6144 43.9913 68.4961 43.9913H64.7266ZM68.1819 34.8774H66.1213V38.2308H68.1317C69.7023 38.2308 70.4813 37.6679 70.4813 36.5541C70.4813 35.4403 69.7149 34.8894 68.1945 34.8894L68.1819 34.8774ZM68.1191 39.3326H66.1087V42.8655H68.3076C69.8657 42.8655 70.6447 42.2787 70.6447 41.093C70.6447 39.9074 69.8028 39.3206 68.1066 39.3206L68.1191 39.3326Z" fill="white"/>
<path d="M81.223 33.7637H82.6303V40.1589C82.6303 41.4763 82.291 42.4703 81.5999 43.1649C80.9089 43.8595 79.9288 44.1948 78.6472 44.1948C77.3655 44.1948 76.3603 43.8475 75.6818 43.1649C75.0033 42.4823 74.6641 41.4763 74.6641 40.1589V33.7637H76.0462V40.1349C76.0462 41.0691 76.2724 41.7876 76.7247 42.2667C77.1771 42.7457 77.8179 42.9972 78.6346 42.9972C79.4513 42.9972 80.0921 42.7577 80.5445 42.2667C80.9968 41.7876 81.2104 41.0691 81.2104 40.1349V33.7637H81.223Z" fill="white"/>
<path d="M93.8644 33.7637L89.9944 39.7517V43.9913H88.6122V39.7517L84.7422 33.7637H86.3505L87.6573 35.8715C88.1724 36.6978 88.7127 37.596 89.2907 38.5781H89.3159C89.8938 37.596 90.4341 36.6978 90.9493 35.8715L92.2812 33.7637H93.877H93.8644Z" fill="white"/>
<path d="M97.3978 33.7637V43.9913H96.0156V33.7637H97.3978Z" fill="white"/>
<path d="M109.23 33.7637V43.9913H107.182L104.631 39.5841C103.664 37.9314 102.797 36.4104 102.043 34.9972H102.018C102.043 36.6379 102.068 38.2667 102.068 39.8954V43.9913H100.711V33.7637H102.746L105.31 38.1709C106.327 39.9314 107.194 41.4643 107.898 42.7577H107.923C107.898 41.117 107.873 39.4882 107.873 37.8595V33.7637H109.23Z" fill="white"/>
<path d="M116.779 33.5586C118.01 33.5586 119.003 33.858 119.757 34.4448C120.511 35.0317 120.951 35.834 121.051 36.84H119.568C119.443 36.1814 119.141 35.6664 118.664 35.3071C118.186 34.9478 117.558 34.7682 116.779 34.7682C115.723 34.7682 114.894 35.1394 114.278 35.87C113.675 36.6125 113.361 37.6185 113.361 38.8999C113.361 40.1814 113.65 41.2113 114.241 41.9419C114.831 42.6724 115.636 43.0437 116.666 43.0437C117.596 43.0437 118.324 42.7682 118.877 42.2293C119.43 41.6904 119.707 40.8401 119.719 39.6903H116.766V38.5526H121.051V43.9898H119.82V42.5766H119.795C119.506 43.0676 119.053 43.4508 118.45 43.7383C117.847 44.0257 117.168 44.1694 116.415 44.1694C115.032 44.1694 113.952 43.7023 113.148 42.7562C112.343 41.8101 111.941 40.5287 111.941 38.8999C111.941 37.2712 112.381 35.9418 113.248 34.9837C114.115 34.0257 115.296 33.5586 116.804 33.5586H116.779Z" fill="white"/>
<path d="M135.966 44.003L134.81 40.961H130.073L128.892 44.003H127.422L131.493 33.7754H133.378L137.461 44.003H135.966ZM130.513 39.7874H134.358L134.006 38.8533C133.39 37.2365 132.875 35.8473 132.448 34.6856H132.423C131.996 35.8473 131.48 37.2365 130.865 38.8533L130.5 39.7874H130.513Z" fill="white"/>
<path d="M143.416 33.5723C144.647 33.5723 145.64 33.8717 146.394 34.4585C147.147 35.0453 147.587 35.8477 147.688 36.8537H146.205C146.079 36.195 145.778 35.6801 145.3 35.3208C144.823 34.9615 144.195 34.7819 143.416 34.7819C142.36 34.7819 141.531 35.1531 140.915 35.8837C140.312 36.6262 139.998 37.6322 139.998 38.9136C139.998 40.195 140.287 41.225 140.878 41.9555C141.468 42.6861 142.272 43.0573 143.303 43.0573C144.232 43.0573 144.961 42.7819 145.514 42.2429C146.067 41.704 146.343 40.8537 146.356 39.704H143.403V38.5663H147.688V44.0034H146.456V42.5903H146.431C146.142 43.0813 145.69 43.4645 145.087 43.7519C144.484 44.0394 143.805 44.1831 143.051 44.1831C141.669 44.1831 140.589 43.716 139.784 42.7699C138.98 41.8238 138.578 40.5423 138.578 38.9136C138.578 37.2849 139.018 35.9555 139.885 34.9974C140.752 34.0393 141.933 33.5723 143.441 33.5723H143.416Z" fill="white"/>
<path d="M157.794 33.7737V34.9474H152.265V38.1809H157.479V39.3426H152.265V42.8156H157.969V43.9893H150.883V33.7617H157.806L157.794 33.7737Z" fill="white"/>
<path d="M169.074 33.7754V44.003H167.026L164.475 39.5958C163.507 37.9431 162.64 36.4221 161.887 35.0089H161.861C161.887 36.6497 161.912 38.2784 161.912 39.9071V44.003H160.555V33.7754H162.59L165.153 38.1826C166.171 39.9431 167.038 41.476 167.742 42.7694H167.767C167.742 41.1287 167.717 39.5 167.717 37.8712V33.7754H169.074Z" fill="white"/>
<path d="M176.467 33.5706C177.723 33.5706 178.728 33.9059 179.495 34.5885C180.261 35.2712 180.676 36.1454 180.726 37.2353H179.294C179.218 36.4808 178.929 35.882 178.427 35.4388C177.924 34.9957 177.258 34.7802 176.454 34.7802C175.436 34.7802 174.645 35.1514 174.067 35.882C173.489 36.6125 173.2 37.6185 173.2 38.888C173.2 40.1574 173.489 41.1634 174.054 41.8939C174.632 42.6245 175.411 42.9957 176.404 42.9957C177.195 42.9957 177.861 42.7682 178.377 42.3251C178.892 41.882 179.218 41.2592 179.331 40.4808H180.776C180.663 41.6305 180.224 42.5407 179.445 43.1993C178.666 43.87 177.66 44.1934 176.404 44.1934C174.971 44.1934 173.828 43.7143 172.999 42.7682C172.169 41.8221 171.742 40.5167 171.742 38.876C171.742 37.2353 172.157 35.9299 172.999 34.9837C173.841 34.0376 174.984 33.5586 176.442 33.5586L176.467 33.5706Z" fill="white"/>
<path d="M190.989 33.7754L187.119 39.7634V44.003H185.737V39.7634L181.867 33.7754H183.476L184.782 35.8832C185.297 36.7095 185.838 37.6077 186.416 38.5898H186.441C187.019 37.6077 187.559 36.7095 188.074 35.8832L189.406 33.7754H191.002H190.989Z" fill="white"/>
</svg>
